<svg enable-background="new 0 0 841.89 595.28" viewBox="0 0 841.89 595.28" xmlns="http://www.w3.org/2000/svg"><path d="m0 0h841.89v595.28h-841.89z" fill="#ffea39" stroke="#231f20" stroke-miterlimit="10"/><g fill="#42406a"><path d="m176.03 129.43c3.996 0 7.412-1.566 10.25-4.698 2.81-3.148 4.217-6.937 4.217-11.366 0-4.455-1.407-8.248-4.217-11.38-2.094-2.327-4.503-3.792-7.228-4.397-.959-.217-1.967-.325-3.022-.325-1.039 0-2.038.108-2.998.325-2.734.605-5.144 2.071-7.228 4.397-2.836 3.132-4.255 6.925-4.255 11.38 0 4.429 1.419 8.217 4.255 11.366 2.829 3.131 6.238 4.698 10.226 4.698z"/><path d="m195.05 150.7c6.455-5.666 11.46-13.259 14.881-22.568 3.242-8.819 5.142-19.443 5.651-31.578.186-4.438-3.262-8.188-7.7-8.373-4.448-.186-8.189 3.262-8.375 7.7-.695 16.568-4.195 29.183-10.423 37.63-8.946-2.249-17.667-2.261-26.167-.037-6.211-8.448-9.701-21.05-10.394-37.593-.187-4.438-3.935-7.885-8.375-7.7s-7.887 3.935-7.702 8.373c.509 12.134 2.411 22.759 5.651 31.578 3.421 9.309 8.429 16.902 14.881 22.568.884.775 1.889 1.321 2.946 1.645v31.363c-9.323 20.928-15.72 40.132-19.018 57.103-.846 4.36 2.002 8.583 6.363 9.431.519.101 1.034.148 1.542.148 3.774 0 7.142-2.669 7.889-6.511 3.144-16.189 9.406-34.752 18.614-55.176.381-.842.6-1.714.679-2.585.078.871.299 1.744.678 2.585 9.207 20.424 15.469 38.987 18.614 55.176.747 3.842 4.114 6.511 7.889 6.511.509 0 1.024-.047 1.542-.148 4.362-.848 7.209-5.071 6.363-9.431-3.293-16.948-9.676-36.121-18.978-57.016v-31.45c1.06-.323 2.066-.869 2.949-1.645z"/><path d="m74.248 130.21c3.997 0 7.414-1.566 10.251-4.698 2.811-3.147 4.217-6.937 4.217-11.366 0-4.455-1.406-8.248-4.217-11.38-2.093-2.325-4.502-3.792-7.228-4.397-.959-.217-1.968-.325-3.023-.325-1.037 0-2.037.108-2.998.325-2.732.605-5.142 2.072-7.226 4.397-2.838 3.132-4.255 6.925-4.255 11.38 0 4.429 1.417 8.219 4.255 11.366 2.829 3.132 6.236 4.698 10.224 4.698z"/><path d="m110.3 191.2c-.577-18.236-5.838-35.938-15.639-52.609-1.289-2.192-3.455-3.548-5.792-3.885-10.55-2.949-20.793-2.811-30.728.424v.017c-1.767.601-3.334 1.815-4.35 3.553-9.724 16.642-14.946 34.304-15.523 52.499-.141 4.441 3.346 8.154 7.787 8.295.086.003.173.004.258.004 4.325 0 7.898-3.437 8.036-7.79.249-7.828 1.519-15.559 3.792-23.139v17.602h.003c-1.024 18.993-1.45 37.909-1.26 56.227.045 4.415 3.638 7.961 8.042 7.961h.085c4.443-.046 8.006-3.684 7.959-8.126-.187-18.108.237-36.816 1.26-55.604 1.022 18.787 1.447 37.495 1.259 55.604-.046 4.442 3.518 8.081 7.96 8.126h.085c4.404 0 7.997-3.546 8.042-7.961.19-18.318-.235-37.233-1.26-56.227h.001v-17.9c2.34 7.674 3.646 15.505 3.896 23.437.139 4.353 3.71 7.79 8.037 7.79.085 0 .172-.001.259-.004 4.445-.139 7.93-3.854 7.791-8.294z"/><path d="m312.88 140.69c3.997 0 7.414-1.564 10.251-4.696 2.81-3.149 4.217-6.937 4.217-11.366 0-4.455-1.407-8.248-4.217-11.379-2.094-2.328-4.503-3.793-7.228-4.399-.959-.215-1.969-.323-3.023-.323-1.037 0-2.037.108-2.998.323-2.732.606-5.142 2.072-7.227 4.399-2.838 3.131-4.255 6.924-4.255 11.379 0 4.429 1.417 8.217 4.255 11.366 2.83 3.132 6.237 4.696 10.225 4.696z"/><path d="m384.6 149.74c-.764-4.378-4.931-7.309-9.308-6.542-17.578 3.065-33.238 3.847-46.579 2.335-10.96-3.301-21.59-3.282-31.888.062-13.218 1.427-28.685.627-46.015-2.396-4.377-.765-8.545 2.165-9.308 6.542-.765 4.376 2.165 8.543 6.542 9.306 12.695 2.216 24.556 3.325 35.453 3.325 4.607 0 9.037-.201 13.289-.599v29.317c-13.748 8.392-21.453 17.053-23.471 26.337-1.917 8.82-2.914 17.242-2.96 25.031-.026 4.443 3.555 8.065 7.998 8.091.017.002.032.002.049.002 4.419 0 8.017-3.572 8.043-7.998.039-6.674.912-13.978 2.594-21.708.715-3.291 4.624-10.238 22.765-19.771.365-.192.709-.409 1.033-.647.321.238.667.455 1.032.647 18.142 9.533 22.05 16.48 22.766 19.772 1.682 7.729 2.553 15.033 2.593 21.707.026 4.426 3.624 7.998 8.044 7.998.017 0 .032 0 .049-.002 4.443-.026 8.023-3.648 7.996-8.091-.047-7.79-1.042-16.211-2.959-25.03-2.015-9.269-9.696-17.914-23.394-26.29v-29.399c4.358.419 8.905.633 13.638.633 10.897 0 22.76-1.109 35.455-3.325 4.377-.764 7.306-4.931 6.543-9.307z"/><path d="m449.7 133.95c3.997 0 7.414-1.566 10.25-4.698 2.812-3.148 4.217-6.937 4.217-11.366 0-4.455-1.404-8.248-4.217-11.379-2.093-2.327-4.502-3.793-7.227-4.397-.96-.217-1.968-.325-3.023-.325-1.038 0-2.036.108-2.997.325-2.732.604-5.142 2.07-7.226 4.397-2.839 3.132-4.258 6.924-4.258 11.379 0 4.429 1.419 8.217 4.258 11.366 2.827 3.132 6.236 4.698 10.223 4.698z"/><path d="m492.51 186.95c-10.164-15.208-17.324-29.548-21.278-42.622-.818-2.706-2.932-4.66-5.456-5.396v-.06c-8.757-2.678-17.303-3.234-25.637-1.673-6.028-9.465-10.622-22.463-13.7-38.808-.823-4.365-5.029-7.239-9.394-6.415-4.367.821-7.239 5.027-6.417 9.394 2.312 12.271 5.484 23.081 9.43 32.127 3.739 8.574 8.291 15.825 13.54 21.596v29.964c-12.264 11.928-19.062 22.747-20.722 32.956-1.622 9.976-2.428 17.972-2.465 24.444-.024 4.443 3.556 8.065 7.999 8.09.016.002.031.002.046.002 4.421 0 8.019-3.574 8.044-7.999.032-5.552.792-12.938 2.257-21.955 1.533-9.428 11.877-20.404 20.283-27.951.23-.207.445-.425.647-.651.201.226.415.444.646.651 8.406 7.547 18.751 18.522 20.283 27.951 1.465 9.017 2.225 16.403 2.257 21.955.025 4.427 3.623 7.999 8.044 7.999.016 0 .031 0 .048-.002 4.443-.024 8.024-3.647 7.997-8.09-.037-6.473-.844-14.469-2.465-24.444-1.659-10.207-8.458-21.028-20.722-32.956v-11.791c3.739 7.349 8.198 14.904 13.359 22.625 1.551 2.321 4.099 3.575 6.695 3.575 1.537 0 3.09-.44 4.463-1.357 3.694-2.47 4.689-7.465 2.218-11.159z"/><path d="m633.08 140.2c-.303-.959-.713-1.899-1.232-2.815-.519-.909-1.106-1.723-1.764-2.44-.779-.855-1.653-1.595-2.622-2.219-1.383-.882-2.971-1.519-4.761-1.907-4.136-.908-8.137-.265-12.002 1.933-3.85 2.188-6.441 5.289-7.772 9.303-1.333 4.014-1.018 7.756.946 11.224 1.981 3.469 5.025 5.666 9.135 6.592 4.135.882 8.131.233 11.989-1.947.892-.511 1.713-1.063 2.465-1.66 2.534-2.017 4.32-4.559 5.358-7.629.987-2.959 1.073-5.77.26-8.435z"/><path d="m607.31 165.97.056-.065c-4.267-6.807-9.478-12.275-15.636-16.408 5.695-9.083 14.648-18.47 26.769-28.035 3.489-2.753 4.084-7.811 1.332-11.299-2.754-3.488-7.81-4.084-11.299-1.331-9.802 7.736-17.909 15.558-24.097 23.25-6.424 7.989-10.994 16.105-13.583 24.125-.333 1.036-.445 2.092-.362 3.115l-31.715 36.57c-9.138 6.835-14.425 13.89-16.045 21.347-1.918 8.819-2.914 17.239-2.96 25.031-.026 4.442 3.555 8.065 7.996 8.091h.05c4.42 0 8.018-3.57 8.044-7.997.039-6.674.911-13.978 2.593-21.708.716-3.293 4.624-10.239 22.766-19.771.365-.191.709-.408 1.032-.646.322.238.667.455 1.032.646 18.142 9.532 22.051 16.479 22.766 19.773 1.682 7.728 2.553 15.032 2.594 21.706.026 4.427 3.622 7.997 8.043 7.997h.05c4.442-.026 8.023-3.649 7.995-8.091-.047-7.792-1.041-16.212-2.96-25.029-.916-4.218-3.01-8.307-6.306-12.299 7.031-1.445 14.271-2.979 21.585-4.577 2.57-.562 4.704-2.344 5.713-4.775s.765-5.201-.653-7.418c-4.613-7.214-9.592-14.681-14.8-22.202zm-19.06 24.022c-1.021.208-1.956.601-2.779 1.136l10.945-12.608c1.969 2.876 3.902 5.741 5.788 8.581-4.728.999-9.394 1.965-13.954 2.891z"/><path d="m732.08 130.96c3.996.173 7.48-1.241 10.457-4.242 2.941-3.028 4.507-6.756 4.698-11.185.19-4.447-1.048-8.295-3.711-11.548-1.999-2.414-4.347-3.983-7.045-4.71-.953-.251-1.957-.398-3.012-.441-1.029-.043-2.029.017-2.997.183-2.76.484-5.229 1.846-7.407 4.087-2.977 3.009-4.56 6.737-4.751 11.185-.189 4.429 1.064 8.277 3.763 11.547 2.692 3.244 6.027 4.952 10.005 5.124z"/><path d="m803.17 137.59c-1.464-4.196-6.051-6.41-10.248-4.946-14.125 4.932-29.255 6.253-44.993 3.94l.001-.016c-10.854-3.839-21.515-4.314-31.983-1.431-16.091 1.051-31.247-1.559-45.063-7.763-4.053-1.82-8.813-.009-10.634 4.043-1.819 4.053-.011 8.814 4.043 10.634 13.926 6.253 28.942 9.405 44.754 9.405 2.004 0 4.022-.056 6.051-.158l-1.293 30.091c-15.06 10.584-29.285 21.168-42.348 31.51-3.483 2.757-4.072 7.817-1.314 11.301 1.589 2.005 3.939 3.051 6.313 3.051 1.749 0 3.509-.568 4.987-1.737 14.215-11.253 29.842-22.808 46.45-34.343.757-.526 1.393-1.159 1.907-1.865.907 17.766 1.283 35.439 1.106 52.577-.046 4.443 3.519 8.081 7.96 8.127h.086c4.404 0 7.997-3.547 8.044-7.961.186-18.054-.227-36.687-1.221-55.397l1.46-33.922c5.243.699 10.433 1.055 15.56 1.055 12.223 0 24.082-1.987 35.432-5.948 4.193-1.466 6.407-6.054 4.943-10.247z"/><path d="m138.25 387.41c3.997.171 7.483-1.243 10.459-4.243 2.94-3.028 4.506-6.756 4.696-11.185.026-.501.031-1 .014-1.492-.122-3.823-1.363-7.175-3.724-10.057-1.998-2.414-4.347-3.982-7.046-4.71-.951-.252-1.954-.398-3.009-.441-1.031-.043-2.029.019-2.997.183-2.76.483-5.229 1.846-7.409 4.087-2.925 2.958-4.503 6.604-4.737 10.938-.007.077-.012.159-.012.246-.19 4.429 1.063 8.276 3.764 11.547 2.688 3.244 6.022 4.953 10.001 5.127z"/><path d="m207.46 384.58c-2.13-3.898-7.019-5.329-10.918-3.199-13.066 7.146-27.702 10.927-43.527 11.251-.201.003-.479-.138-.676-.193-.224-.065-.449-.128-.674-.193-.45-.126-.9-.254-1.352-.378-.897-.247-1.796-.485-2.701-.707-1.779-.435-3.576-.801-5.391-1.054-1.78-.246-3.571-.38-5.368-.4-1.78-.022-3.557.068-5.33.228-2.18.194-4.39.385-6.545.759-.585.103-1.167.235-1.727.427-.414.139-.815.305-1.213.48-.023.007-.046.013-.07.02v.012c-13.362 5.922-24.217 15.762-32.274 29.264-1.517 2.54-1.467 5.581-.138 8.001-3.574 6.766-7.085 15.262-10.456 25.313-1.411 4.213.859 8.773 5.07 10.185.849.284 1.71.42 2.559.42 3.362 0 6.499-2.127 7.627-5.491 2.466-7.361 4.976-13.733 7.492-19.045 8.884 2.862 20.416 6.742 34.422 11.579.693 15.705.971 31.295.814 46.464-.046 4.443 3.519 8.081 7.961 8.128h.085c4.402 0 7.996-3.548 8.042-7.96.188-18.056-.226-36.688-1.219-55.399l1.478-34.373c18.402-.389 35.491-4.829 50.831-13.218 3.898-2.136 5.331-7.025 3.198-10.921zm-87.119 44.852c-5.227-1.754-9.91-3.295-14.027-4.62 4.229-6.009 9.145-10.819 14.85-14.521z"/><path d="m273.75 386.3c3.995 0 7.414-1.566 10.25-4.698 2.812-3.149 4.217-6.937 4.217-11.365 0-4.455-1.405-8.248-4.217-11.38-2.094-2.326-4.503-3.793-7.227-4.398-.961-.217-1.968-.324-3.023-.324-1.039 0-2.038.107-2.997.324-2.733.605-5.142 2.072-7.229 4.398-2.836 3.132-4.255 6.925-4.255 11.38 0 4.429 1.418 8.216 4.255 11.365 2.83 3.131 6.239 4.698 10.226 4.698z"/><path d="m305.63 344.88c-4.443-.188-8.189 3.262-8.375 7.7-.698 16.665-4.237 29.327-10.535 37.777-8.87-2.216-17.52-2.23-25.952-.049-6.275-8.447-9.801-21.096-10.498-37.729-.186-4.438-3.938-7.883-8.375-7.7-4.439.186-7.887 3.935-7.701 8.374.509 12.136 2.411 22.759 5.65 31.577 3.422 9.309 8.429 16.902 14.882 22.567.876.769 1.874 1.313 2.92 1.637v33.228h.001c-.646 12.017-1.057 24.06-1.221 35.803-.096 6.826-.108 13.697-.039 20.425.045 4.414 3.638 7.962 8.042 7.962h.085c4.443-.047 8.006-3.685 7.961-8.128-.068-6.599-.056-13.338.039-20.035.161-11.664.573-23.63 1.221-35.566.647 11.942 1.057 23.909 1.22 35.569.094 6.69.107 13.43.039 20.032-.047 4.443 3.518 8.081 7.961 8.128h.085c4.404 0 7.997-3.548 8.042-7.962.07-6.731.057-13.604-.039-20.423-.165-11.739-.576-23.782-1.223-35.805h.003v-33.211c1.066-.323 2.082-.87 2.973-1.653 6.452-5.665 11.458-13.259 14.88-22.567 3.241-8.818 5.144-19.443 5.651-31.577.188-4.44-3.259-8.189-7.697-8.374z"/><path d="m421.29 473.36c-2.013-9.267-9.69-17.909-23.38-26.282v-27.629c1.066-.323 2.081-.871 2.973-1.654 6.453-5.666 11.46-13.257 14.881-22.566 3.241-8.818 5.142-19.442 5.651-31.577.186-4.439-3.262-8.189-7.701-8.375-4.443-.188-8.189 3.262-8.375 7.701-.698 16.664-4.237 29.328-10.533 37.777-8.872-2.216-17.521-2.231-25.954-.048-6.273-8.45-9.799-21.097-10.498-37.729-.186-4.439-3.936-7.884-8.375-7.701-4.438.186-7.885 3.936-7.7 8.375.509 12.135 2.409 22.759 5.651 31.577 3.421 9.31 8.427 16.9 14.879 22.566.877.771 1.874 1.313 2.922 1.639v27.581c-13.755 8.393-21.466 17.056-23.483 26.344-1.917 8.819-2.914 17.24-2.96 25.032-.026 4.442 3.553 8.065 7.997 8.092h.048c4.421 0 8.017-3.571 8.043-7.998.04-6.674.913-13.978 2.593-21.707.715-3.293 4.624-10.237 22.766-19.771.366-.193.71-.408 1.032-.646.324.238.667.453 1.034.646 18.142 9.534 22.049 16.479 22.765 19.773 1.681 7.728 2.554 15.031 2.594 21.705.026 4.427 3.623 7.998 8.043 7.998h.048c4.444-.026 8.023-3.649 7.997-8.092-.045-7.792-1.04-16.213-2.958-25.031z"/><path d="m381.83 396.7c3.997 0 7.414-1.566 10.252-4.696 2.81-3.15 4.217-6.938 4.217-11.367 0-4.454-1.407-8.248-4.217-11.379-2.094-2.327-4.503-3.793-7.229-4.399-.959-.215-1.968-.323-3.023-.323-1.037 0-2.036.108-2.997.323-2.733.606-5.142 2.072-7.227 4.399-2.838 3.131-4.255 6.925-4.255 11.379 0 4.43 1.417 8.217 4.255 11.367 2.829 3.13 6.237 4.696 10.224 4.696z"/><path d="m521.73 426.6c-2.995-10.72-7.449-21.074-13.236-30.779-1.223-2.052-3.218-3.36-5.391-3.779v-.084c-10.271-3.252-20.282-3.572-30.032-.962-.559.097-1.108.253-1.638.467-.169.051-.336.101-.504.153v.07c-.953.462-1.831 1.121-2.569 1.975-7.618 8.815-14.312 18.427-19.897 28.566-1.523 2.765-1.288 6.166.601 8.695 7.995 10.705 14.863 19.624 20.474 26.587-.002.138-.007.277-.01.415 0 .014-.001.027-.001.042l-.064 3.957v.02c-.012.35-.075 1.888-.348 7.926-.201 4.438 3.234 8.2 7.672 8.398.124.008.247.011.37.011 4.275 0 7.834-3.368 8.029-7.683.239-5.285.336-7.398.352-8.414h.012l.025-1.476c.261-.149.522-.3.786-.454-.132 12.972-.541 25.823-1.236 38.371-.246 4.437 3.15 8.232 7.587 8.479.151.008.301.012.451.012 4.239 0 7.788-3.313 8.025-7.599.911-16.409 1.348-33.312 1.308-50.338 5.42-4.211 11.085-9.057 16.962-14.517 2.206-2.051 3.082-5.16 2.272-8.059zm-51.084-9.658-.177 15.634c-1.714-2.242-3.495-4.596-5.35-7.059 1.741-2.914 3.586-5.776 5.527-8.575zm32.05 11.18.085-7.517c.729 1.863 1.406 3.746 2.03 5.642-.709.638-1.415 1.261-2.115 1.875z"/><path d="m487.05 386.79c3.997.047 7.435-1.479 10.316-4.579 2.846-3.119 4.295-6.894 4.35-11.322.047-4.456-1.318-8.261-4.098-11.417-2.072-2.351-4.468-3.842-7.189-4.475-.96-.225-1.97-.344-3.025-.354-1.038-.021-2.036.074-2.995.282-2.73.578-5.153 2.019-7.27 4.325-2.872 3.09-4.33 6.86-4.377 11.306-.054 4.431 1.324 8.242 4.137 11.432 2.787 3.163 6.17 4.764 10.151 4.802z"/><path d="m604.47 387.42c3.996.174 7.482-1.241 10.458-4.243 2.942-3.027 4.507-6.756 4.696-11.185.026-.501.031-.998.015-1.492-.123-3.823-1.363-7.175-3.726-10.055-1.997-2.413-4.346-3.984-7.045-4.711-.951-.25-1.954-.397-3.01-.439-1.029-.044-2.028.016-2.997.181-2.759.484-5.229 1.848-7.409 4.087-2.924 2.958-4.503 6.604-4.736 10.938-.009.077-.013.159-.013.247-.19 4.429 1.065 8.278 3.764 11.548 2.689 3.243 6.023 4.951 10.003 5.124z"/><path d="m648.11 415.39c-7.542-8.186-16.217-15.384-25.783-21.395-.678-.426-1.395-.734-2.127-.939l.001-.033c-10.217-3.613-20.262-4.248-30.137-1.903-.335.057-.671.136-1.005.238-.062.02-.125.04-.187.06-.271.069-.541.143-.812.217l-.001.038c-10.815 3.416-21.293 7.871-31.156 13.26-.032.018-.063.033-.093.049-.324.16-.63.342-.921.539-3.199 1.886-4.762 5.81-3.537 9.474 2.884 8.643 5.299 16.001 7.197 21.951-3.531 5.575-7.15 12.231-10.8 19.895-1.91 4.011-.209 8.811 3.802 10.723 1.118.531 2.295.783 3.455.783 3.006 0 5.891-1.692 7.269-4.586 3.445-7.232 6.806-13.416 10.03-18.472 6.441 2.268 15.782 5.413 28.279 9.522.303.1.608.174.912.235.595 14.633.827 29.146.68 43.291-.045 4.442 3.52 8.082 7.962 8.128h.085c4.403 0 7.997-3.546 8.042-7.961.187-18.05-.226-36.683-1.22-55.397l1.364-31.695c4.807 3.441 9.313 7.239 13.47 11.359-2.753 7.153-5.579 13.602-8.425 19.219-2.008 3.963-.422 8.804 3.541 10.812 1.166.591 2.406.87 3.629.87 2.935 0 5.766-1.612 7.184-4.41 3.74-7.387 7.422-16.02 10.94-25.66 1.037-2.831.402-5.998-1.638-8.212zm-60.79-6.499-1.025 23.859c-5.486-1.865-9.703-3.348-12.615-4.428-1.157-3.583-2.465-7.575-3.916-11.959 5.674-2.83 11.547-5.329 17.556-7.472z"/><path d="m720.63 388.94c-3.998 0-7.414-1.564-10.252-4.696-2.811-3.149-4.217-6.937-4.217-11.366 0-4.454 1.406-8.247 4.217-11.38 2.093-2.327 4.503-3.793 7.228-4.399.959-.215 1.969-.323 3.024-.323 1.036 0 2.036.108 2.995.323 2.734.606 5.144 2.072 7.228 4.399 2.837 3.133 4.256 6.926 4.256 11.38 0 4.43-1.419 8.217-4.256 11.366-2.829 3.132-6.238 4.696-10.223 4.696z"/><path d="m677.82 441.94c10.165-15.208 17.324-29.548 21.278-42.624.817-2.702 2.931-4.656 5.455-5.394v-.062c8.758-2.677 17.305-3.231 25.639-1.671 6.027-9.467 10.62-22.464 13.698-38.808.822-4.364 5.029-7.238 9.396-6.417 4.365.823 7.239 5.029 6.415 9.395-2.312 12.272-5.484 23.083-9.43 32.129-3.738 8.574-8.29 15.825-13.54 21.596v29.964c12.264 11.928 19.062 22.747 20.722 32.956 1.622 9.976 2.428 17.972 2.466 24.444.026 4.442-3.555 8.064-7.998 8.09-.017.001-.032.001-.047.001-4.422 0-8.02-3.573-8.045-7.998-.032-5.553-.792-12.938-2.257-21.956-1.532-9.428-11.874-20.403-20.281-27.95-.231-.207-.446-.425-.647-.651-.201.227-.417.444-.646.651-8.407 7.547-18.75 18.522-20.283 27.95-1.466 9.017-2.226 16.403-2.258 21.956-.025 4.427-3.622 7.998-8.042 7.998-.017 0-.032 0-.049-.001-4.442-.025-8.022-3.647-7.998-8.09.038-6.473.845-14.469 2.466-24.444 1.659-10.207 8.457-21.028 20.721-32.956v-11.791c-3.739 7.349-8.198 14.904-13.358 22.625-1.552 2.321-4.1 3.575-6.695 3.575-1.536 0-3.09-.44-4.464-1.358-3.695-2.47-4.687-7.464-2.218-11.159z"/></g></svg>